<svg width="30" height="37" viewBox="0 0 30 37" fill="none" xmlns="http://www.w3.org/2000/svg">
<path d="M0.969206 0.552074C1.09264 0.699524 1.33713 0.991695 1.51515 1.20195C1.69318 1.4122 2.13706 1.9392 2.50023 2.37609C2.86341 2.81025 3.3239 3.35909 3.52092 3.59118C3.71793 3.82328 4.17131 4.36393 4.53211 4.79263C4.89053 5.22133 5.47209 5.91489 5.82577 6.33539C6.71115 7.38666 6.93428 7.65971 6.92478 7.67064C6.91291 7.68429 6.49514 7.87816 4.87392 8.62906C4.2354 8.92396 3.35951 9.33081 2.9275 9.53014C2.49786 9.72948 1.67419 10.1118 1.09976 10.3766C0.0577113 10.8599 -0.0396098 10.9063 0.0102376 10.9091C0.0458429 10.9091 0.316443 10.9418 2.58331 11.2231C4.88104 11.5071 5.7688 11.619 5.79491 11.6272C5.8139 11.6327 5.36527 12.0395 2.75422 14.3905L2.17504 14.9093L2.45751 14.9285C2.72811 14.9476 3.21471 14.9721 5.37239 15.0868C5.93496 15.1169 6.5355 15.1496 6.70878 15.1578L7.0221 15.1769L6.85357 15.5483C6.761 15.7531 6.10349 17.2003 5.39138 18.7676C4.67928 20.335 4.1001 21.621 4.10484 21.6265C4.11434 21.6347 4.4158 21.5036 6.26252 20.6735C7.14079 20.2776 9.22488 19.3438 10.2266 18.896C10.7559 18.6584 11.3968 18.369 11.6508 18.2543C11.9048 18.1396 12.1208 18.0495 12.1326 18.0549C12.1635 18.0741 13.5141 20.1411 13.5094 20.1602C13.5046 20.1711 12.7213 20.8346 11.7647 21.632L10.0248 23.0874H9.24862H8.47005V24.0567V25.026H9.52871H10.5874L10.9577 24.7175C11.1642 24.5455 12.0543 23.8028 12.9397 23.0628C13.8251 22.3228 14.5538 21.7221 14.5562 21.7275C14.7888 22.0525 16.0397 23.9994 16.0279 24.0157C16.016 24.0267 15.4511 24.4827 14.7722 25.0315C14.0933 25.5776 12.7522 26.6617 11.7908 27.4371L10.0414 28.8488H7.79592H5.55042V29.8182V30.7875H8.07365H10.5945L13.8227 28.1798C15.5982 26.7463 17.058 25.5722 17.0675 25.5722C17.0984 25.5722 18.4894 27.7102 18.4704 27.7293C18.4609 27.7402 16.7851 29.1355 14.7484 30.8285C12.7118 32.5242 10.8224 34.0997 10.547 34.3291L10.0486 34.7468H6.42393H2.79694V35.7298V36.7128H6.68741H10.5779L12.1303 35.4213C12.9824 34.7113 14.9834 33.043 16.5762 31.7159C18.1689 30.3889 19.4863 29.3048 19.5029 29.3021C19.5314 29.2994 19.8495 29.7772 22.8427 34.3318C23.6925 35.6233 24.388 36.6773 24.3927 36.6746C24.3951 36.6691 24.2907 35.3912 24.1601 33.8294C24.0272 32.2702 23.9109 30.8749 23.899 30.7329C23.7613 29.0837 23.6545 27.8276 23.6355 27.5928C23.6237 27.4344 23.6023 27.1941 23.5904 27.0603C23.5548 26.6835 23.5453 26.7026 23.7162 26.8255C25.1191 27.8358 26.3914 28.7287 26.3914 28.7014C26.3914 28.6823 25.8407 25.979 25.1689 22.6942L23.9465 16.7197L24.0177 16.6023C24.1198 16.433 24.331 16.2227 24.5019 16.1272C24.7061 16.0125 24.8983 15.9606 25.1214 15.9606C25.3517 15.9606 25.544 16.0152 25.7386 16.1326C25.8193 16.1818 26.7878 17.0528 27.92 18.0904C29.0404 19.1199 29.9661 19.9636 29.978 19.9691C30.0089 19.9827 30.0065 13.5741 29.9756 13.1891C29.8427 11.5781 29.0784 10.2046 27.8678 9.39635C27.78 9.33628 27.4904 9.18336 27.2245 9.0523L26.7427 8.81201L26.5908 8.47888C25.9783 7.13545 24.9933 6.02411 23.8064 5.34147C23.3459 5.07388 23.0682 4.96738 22.4273 4.80628C22.095 4.72163 20.7159 4.37759 19.3653 4.03899C18.0146 3.70041 15.6599 3.11061 14.1313 2.72833C12.605 2.34605 10.4948 1.81905 9.44563 1.55692C8.39647 1.29206 7.53244 1.08453 7.5277 1.09C7.52058 1.09546 7.80067 1.6088 8.1496 2.22864C8.49616 2.8512 8.77151 3.36182 8.76201 3.36455C8.75015 3.37001 8.53177 3.29082 8.27778 3.19252C8.02617 3.09149 7.3473 2.82936 6.77287 2.60818C4.24727 1.63065 1.3941 0.524769 1.10688 0.410088C0.933601 0.341824 0.781685 0.287212 0.769817 0.287212C0.757948 0.287212 0.848148 0.407356 0.969206 0.552074ZM12.5385 4.32843C13.2578 4.50865 15.0262 4.951 16.4694 5.31144C17.9126 5.67187 19.8566 6.15791 20.7895 6.39001C21.7223 6.62483 22.5626 6.84601 22.6528 6.88696C23.6759 7.32932 24.6135 8.30139 25.1096 9.43457C25.1665 9.56291 25.2639 9.80866 25.3256 9.98069C25.4063 10.2073 25.4538 10.3029 25.4941 10.3275C25.525 10.3466 25.8597 10.5077 26.2347 10.6879C27.0228 11.0647 27.2317 11.204 27.5307 11.5371C27.8963 11.9467 28.1408 12.46 28.2428 13.0334C28.2856 13.2874 28.2903 13.4075 28.2903 14.6199V15.9333L27.7396 15.4254C26.9539 14.7018 26.7617 14.5407 26.4958 14.3851C26.0353 14.1147 25.646 14.0083 25.1214 14.011C24.7345 14.011 24.5233 14.0492 24.1482 14.1885C23.2818 14.5052 22.5697 15.308 22.2374 16.3402L22.171 16.5531L22.9875 20.5507C23.4361 22.7488 23.8017 24.5537 23.7993 24.5646C23.7946 24.5755 23.2866 24.2233 22.6718 23.7836C22.0546 23.3413 21.5491 22.9972 21.5491 23.0136C21.5491 23.0327 21.587 23.4942 21.6321 24.043C21.7674 25.6268 21.8956 27.1504 22.0095 28.5485C22.0689 29.2611 22.1235 29.8782 22.1306 29.9192C22.1354 29.9629 22.1377 29.9957 22.1306 29.9957C22.1259 29.9957 21.663 29.2994 21.1052 28.4502C20.5474 27.601 19.7522 26.3941 19.3415 25.7688C18.074 23.841 15.3371 19.6769 14.0174 17.6672C13.3266 16.6159 12.7474 15.7394 12.7332 15.7203C12.7118 15.6957 12.4626 15.7968 11.544 16.2091C8.42495 17.6071 7.70335 17.9293 7.6986 17.9211C7.69623 17.9157 8.15672 16.8945 8.72166 15.6493C9.28897 14.4042 9.74947 13.383 9.74472 13.3775C9.7376 13.3666 9.13943 13.3338 7.9241 13.271C7.46123 13.2492 7.02448 13.2219 6.95801 13.2137L6.83221 13.2L8.49141 11.7064C9.40528 10.8845 10.1482 10.2101 10.1459 10.2046C10.1388 10.1964 7.38053 9.85235 7.1123 9.82777C7.01023 9.81685 6.93428 9.79774 6.94377 9.78682C6.96039 9.7677 7.82441 9.36358 9.37917 8.64817C9.66164 8.51711 9.89189 8.39696 9.88951 8.38058C9.88477 8.3642 9.27948 7.63241 8.54126 6.7559C7.80542 5.87939 7.10993 5.05476 7.00074 4.92097C6.88918 4.7899 6.8061 4.68341 6.81084 4.68341C6.81797 4.68341 6.98412 4.74621 7.17877 4.82267C7.37341 4.89912 8.49379 5.33601 9.66876 5.78928C10.8437 6.24529 12.0282 6.70402 12.3036 6.81051C12.5765 6.917 12.8091 7.00165 12.821 6.99619C12.8305 6.99346 12.465 6.32447 12.0068 5.50804C11.5511 4.69433 11.1761 4.01988 11.1761 4.01442C11.1761 3.98985 11.2449 4.0035 12.5385 4.32843Z" fill="white"/>
<path d="M0.969206 0.552074C1.09264 0.699524 1.33713 0.991695 1.51515 1.20195C1.69318 1.4122 2.13706 1.9392 2.50023 2.37609C2.86341 2.81025 3.3239 3.35909 3.52092 3.59118C3.71793 3.82328 4.17131 4.36393 4.53211 4.79263C4.89053 5.22133 5.47209 5.91489 5.82577 6.33539C6.71115 7.38666 6.93428 7.65971 6.92478 7.67064C6.91291 7.68429 6.49514 7.87816 4.87392 8.62906C4.2354 8.92396 3.35951 9.33081 2.9275 9.53014C2.49786 9.72948 1.67419 10.1118 1.09976 10.3766C0.0577113 10.8599 -0.0396098 10.9063 0.0102376 10.9091C0.0458429 10.9091 0.316443 10.9418 2.58331 11.2231C4.88104 11.5071 5.7688 11.619 5.79491 11.6272C5.8139 11.6327 5.36527 12.0395 2.75422 14.3905L2.17504 14.9093L2.45751 14.9285C2.72811 14.9476 3.21471 14.9721 5.37239 15.0868C5.93496 15.1169 6.5355 15.1496 6.70878 15.1578L7.0221 15.1769L6.85357 15.5483C6.761 15.7531 6.10349 17.2003 5.39138 18.7676C4.67928 20.335 4.1001 21.621 4.10484 21.6265C4.11434 21.6347 4.4158 21.5036 6.26252 20.6735C7.14079 20.2776 9.22488 19.3438 10.2266 18.896C10.7559 18.6584 11.3968 18.369 11.6508 18.2543C11.9048 18.1396 12.1208 18.0495 12.1326 18.0549C12.1635 18.0741 13.5141 20.1411 13.5094 20.1602C13.5046 20.1711 12.7213 20.8346 11.7647 21.632L10.0248 23.0874H9.24862H8.47005V24.0567V25.026H9.52871H10.5874L10.9577 24.7175C11.1642 24.5455 12.0543 23.8028 12.9397 23.0628C13.8251 22.3228 14.5538 21.7221 14.5562 21.7275C14.7888 22.0525 16.0397 23.9994 16.0279 24.0157C16.016 24.0267 15.4511 24.4827 14.7722 25.0315C14.0933 25.5776 12.7522 26.6617 11.7908 27.4371L10.0414 28.8488H7.79592H5.55042V29.8182V30.7875H8.07365H10.5945L13.8227 28.1798C15.5982 26.7463 17.058 25.5722 17.0675 25.5722C17.0984 25.5722 18.4894 27.7102 18.4704 27.7293C18.4609 27.7402 16.7851 29.1355 14.7484 30.8285C12.7118 32.5242 10.8224 34.0997 10.547 34.3291L10.0486 34.7468H6.42393H2.79694V35.7298V36.7128H6.68741H10.5779L12.1303 35.4213C12.9824 34.7113 14.9834 33.043 16.5762 31.7159C18.1689 30.3889 19.4863 29.3048 19.5029 29.3021C19.5314 29.2994 19.8495 29.7772 22.8427 34.3318C23.6925 35.6233 24.388 36.6773 24.3927 36.6746C24.3951 36.6691 24.2907 35.3912 24.1601 33.8294C24.0272 32.2702 23.9109 30.8749 23.899 30.7329C23.7613 29.0837 23.6545 27.8276 23.6355 27.5928C23.6237 27.4344 23.6023 27.1941 23.5904 27.0603C23.5548 26.6835 23.5453 26.7026 23.7162 26.8255C25.1191 27.8358 26.3914 28.7287 26.3914 28.7014C26.3914 28.6823 25.8407 25.979 25.1689 22.6942L23.9465 16.7197L24.0177 16.6023C24.1198 16.433 24.331 16.2227 24.5019 16.1272C24.7061 16.0125 24.8983 15.9606 25.1214 15.9606C25.3517 15.9606 25.544 16.0152 25.7386 16.1326C25.8193 16.1818 26.7878 17.0528 27.92 18.0904C29.0404 19.1199 29.9661 19.9636 29.978 19.9691C30.0089 19.9827 30.0065 13.5741 29.9756 13.1891C29.8427 11.5781 29.0784 10.2046 27.8678 9.39635C27.78 9.33628 27.4904 9.18336 27.2245 9.0523L26.7427 8.81201L26.5908 8.47888C25.9783 7.13545 24.9933 6.02411 23.8064 5.34147C23.3459 5.07388 23.0682 4.96738 22.4273 4.80628C22.095 4.72163 20.7159 4.37759 19.3653 4.03899C18.0146 3.70041 15.6599 3.11061 14.1313 2.72833C12.605 2.34605 10.4948 1.81905 9.44563 1.55692C8.39647 1.29206 7.53244 1.08453 7.5277 1.09C7.52058 1.09546 7.80067 1.6088 8.1496 2.22864C8.49616 2.8512 8.77151 3.36182 8.76201 3.36455C8.75015 3.37001 8.53177 3.29082 8.27778 3.19252C8.02617 3.09149 7.3473 2.82936 6.77287 2.60818C4.24727 1.63065 1.3941 0.524769 1.10688 0.410088C0.933601 0.341824 0.781685 0.287212 0.769817 0.287212C0.757948 0.287212 0.848148 0.407356 0.969206 0.552074ZM12.5385 4.32843C13.2578 4.50865 15.0262 4.951 16.4694 5.31144C17.9126 5.67187 19.8566 6.15791 20.7895 6.39001C21.7223 6.62483 22.5626 6.84601 22.6528 6.88696C23.6759 7.32932 24.6135 8.30139 25.1096 9.43457C25.1665 9.56291 25.2639 9.80866 25.3256 9.98069C25.4063 10.2073 25.4538 10.3029 25.4941 10.3275C25.525 10.3466 25.8597 10.5077 26.2347 10.6879C27.0228 11.0647 27.2317 11.204 27.5307 11.5371C27.8963 11.9467 28.1408 12.46 28.2428 13.0334C28.2856 13.2874 28.2903 13.4075 28.2903 14.6199V15.9333L27.7396 15.4254C26.9539 14.7018 26.7617 14.5407 26.4958 14.3851C26.0353 14.1147 25.646 14.0083 25.1214 14.011C24.7345 14.011 24.5233 14.0492 24.1482 14.1885C23.2818 14.5052 22.5697 15.308 22.2374 16.3402L22.171 16.5531L22.9875 20.5507C23.4361 22.7488 23.8017 24.5537 23.7993 24.5646C23.7946 24.5755 23.2866 24.2233 22.6718 23.7836C22.0546 23.3413 21.5491 22.9972 21.5491 23.0136C21.5491 23.0327 21.587 23.4942 21.6321 24.043C21.7674 25.6268 21.8956 27.1504 22.0095 28.5485C22.0689 29.2611 22.1235 29.8782 22.1306 29.9192C22.1354 29.9629 22.1377 29.9957 22.1306 29.9957C22.1259 29.9957 21.663 29.2994 21.1052 28.4502C20.5474 27.601 19.7522 26.3941 19.3415 25.7688C18.074 23.841 15.3371 19.6769 14.0174 17.6672C13.3266 16.6159 12.7474 15.7394 12.7332 15.7203C12.7118 15.6957 12.4626 15.7968 11.544 16.2091C8.42495 17.6071 7.70335 17.9293 7.6986 17.9211C7.69623 17.9157 8.15672 16.8945 8.72166 15.6493C9.28897 14.4042 9.74947 13.383 9.74472 13.3775C9.7376 13.3666 9.13943 13.3338 7.9241 13.271C7.46123 13.2492 7.02448 13.2219 6.95801 13.2137L6.83221 13.2L8.49141 11.7064C9.40528 10.8845 10.1482 10.2101 10.1459 10.2046C10.1388 10.1964 7.38053 9.85235 7.1123 9.82777C7.01023 9.81685 6.93428 9.79774 6.94377 9.78682C6.96039 9.7677 7.82441 9.36358 9.37917 8.64817C9.66164 8.51711 9.89189 8.39696 9.88951 8.38058C9.88477 8.3642 9.27948 7.63241 8.54126 6.7559C7.80542 5.87939 7.10993 5.05476 7.00074 4.92097C6.88918 4.7899 6.8061 4.68341 6.81084 4.68341C6.81797 4.68341 6.98412 4.74621 7.17877 4.82267C7.37341 4.89912 8.49379 5.33601 9.66876 5.78928C10.8437 6.24529 12.0282 6.70402 12.3036 6.81051C12.5765 6.917 12.8091 7.00165 12.821 6.99619C12.8305 6.99346 12.465 6.32447 12.0068 5.50804C11.5511 4.69433 11.1761 4.01988 11.1761 4.01442C11.1761 3.98985 11.2449 4.0035 12.5385 4.32843Z" fill="white"/>
<path d="M18.2024 9.66936C18.4968 10.5322 18.5442 10.6332 18.7199 10.7862C18.9406 10.98 19.2824 11.0565 19.5222 10.9664C19.6575 10.9145 20.4859 10.4066 20.4645 10.3875C20.455 10.3793 19.9471 10.1909 19.3323 9.96699C18.7199 9.74581 18.2024 9.5574 18.1858 9.55194C18.1644 9.54102 18.1692 9.57652 18.2024 9.66936Z" fill="white"/>
</svg>
