<svg width="256" height="497" viewBox="0 0 256 497" fill="none" xmlns="http://www.w3.org/2000/svg">
<g filter="url(#filter0_d_914_95)">
<rect x="4" y="3" width="248" height="489" rx="16" fill="white"/>
<rect x="86" y="15" width="84" height="22" rx="11" fill="#2C2C2C"/>
<rect x="86" y="471" width="84" height="3" rx="1.5" fill="#2C2C2C"/>
<rect x="51" y="408" width="161" height="30" rx="15" fill="#2C2C2C"/>
<path d="M127.268 428.692C126.511 428.692 125.828 428.516 125.22 428.164C124.623 427.812 124.148 427.321 123.796 426.692C123.455 426.052 123.284 425.316 123.284 424.484C123.284 423.631 123.46 422.889 123.812 422.26C124.164 421.62 124.644 421.124 125.252 420.772C125.86 420.42 126.543 420.244 127.3 420.244C128.068 420.244 128.751 420.42 129.348 420.772C129.945 421.124 130.415 421.615 130.756 422.244C131.108 422.873 131.284 423.615 131.284 424.468C131.284 425.321 131.108 426.063 130.756 426.692C130.415 427.321 129.94 427.812 129.332 428.164C128.724 428.516 128.036 428.692 127.268 428.692ZM127.268 427.316C127.705 427.316 128.1 427.209 128.452 426.996C128.815 426.783 129.103 426.468 129.316 426.052C129.54 425.625 129.652 425.097 129.652 424.468C129.652 423.839 129.545 423.316 129.332 422.9C129.119 422.473 128.831 422.153 128.468 421.94C128.116 421.727 127.727 421.62 127.3 421.62C126.873 421.62 126.479 421.727 126.116 421.94C125.753 422.153 125.46 422.473 125.236 422.9C125.023 423.316 124.916 423.839 124.916 424.468C124.916 425.097 125.023 425.625 125.236 426.052C125.46 426.468 125.748 426.783 126.1 426.996C126.463 427.209 126.852 427.316 127.268 427.316ZM136.286 428.692C135.603 428.692 135.006 428.58 134.494 428.356C133.982 428.132 133.577 427.817 133.278 427.412C132.979 427.007 132.798 426.532 132.734 425.988H134.366C134.419 426.244 134.521 426.479 134.67 426.692C134.83 426.905 135.043 427.076 135.31 427.204C135.587 427.332 135.913 427.396 136.286 427.396C136.638 427.396 136.926 427.348 137.15 427.252C137.385 427.145 137.555 427.007 137.662 426.836C137.769 426.655 137.822 426.463 137.822 426.26C137.822 425.961 137.747 425.737 137.598 425.588C137.459 425.428 137.246 425.305 136.958 425.22C136.681 425.124 136.345 425.039 135.95 424.964C135.577 424.9 135.214 424.815 134.862 424.708C134.521 424.591 134.211 424.447 133.934 424.276C133.667 424.105 133.454 423.892 133.294 423.636C133.134 423.369 133.054 423.044 133.054 422.66C133.054 422.201 133.177 421.791 133.422 421.428C133.667 421.055 134.014 420.767 134.462 420.564C134.921 420.351 135.459 420.244 136.078 420.244C136.974 420.244 137.694 420.457 138.238 420.884C138.782 421.311 139.102 421.913 139.198 422.692H137.646C137.603 422.329 137.443 422.052 137.166 421.86C136.889 421.657 136.521 421.556 136.062 421.556C135.603 421.556 135.251 421.647 135.006 421.828C134.761 422.009 134.638 422.249 134.638 422.548C134.638 422.74 134.707 422.911 134.846 423.06C134.985 423.209 135.187 423.337 135.454 423.444C135.731 423.54 136.067 423.631 136.462 423.716C137.027 423.823 137.534 423.956 137.982 424.116C138.43 424.276 138.787 424.511 139.054 424.82C139.321 425.129 139.454 425.572 139.454 426.148C139.465 426.649 139.337 427.092 139.07 427.476C138.814 427.86 138.446 428.159 137.966 428.372C137.497 428.585 136.937 428.692 136.286 428.692Z" fill="white"/>
<rect x="22" y="90" width="211" height="231" rx="8" fill="url(#paint0_linear_914_95)"/>
<rect x="47" y="137" width="161" height="41" rx="8" fill="url(#paint1_linear_914_95)"/>
<path d="M58.168 163V151.8H60.056L63.848 159.368L67.624 151.8H69.528V163H67.928V154.6L64.456 161.432H63.224L59.768 154.616V163H58.168ZM74.4475 163.192C73.7862 163.192 73.2368 163.08 72.7995 162.856C72.3622 162.632 72.0368 162.333 71.8235 161.96C71.6102 161.576 71.5035 161.165 71.5035 160.728C71.5035 160.195 71.6422 159.741 71.9195 159.368C72.1968 158.984 72.5915 158.691 73.1035 158.488C73.6155 158.285 74.2288 158.184 74.9435 158.184H77.0395C77.0395 157.715 76.9702 157.325 76.8315 157.016C76.6928 156.707 76.4848 156.477 76.2075 156.328C75.9408 156.168 75.5995 156.088 75.1835 156.088C74.7035 156.088 74.2928 156.205 73.9515 156.44C73.6102 156.664 73.3968 157 73.3115 157.448H71.7115C71.7755 156.883 71.9675 156.403 72.2875 156.008C72.6182 155.603 73.0395 155.293 73.5515 155.08C74.0635 154.856 74.6075 154.744 75.1835 154.744C75.9408 154.744 76.5755 154.877 77.0875 155.144C77.5995 155.411 77.9835 155.789 78.2395 156.28C78.5062 156.76 78.6395 157.336 78.6395 158.008V163H77.2475L77.1195 161.64C77.0022 161.853 76.8635 162.056 76.7035 162.248C76.5435 162.44 76.3515 162.605 76.1275 162.744C75.9142 162.883 75.6635 162.989 75.3755 163.064C75.0982 163.149 74.7888 163.192 74.4475 163.192ZM74.7515 161.896C75.0928 161.896 75.4022 161.827 75.6795 161.688C75.9568 161.549 76.1915 161.363 76.3835 161.128C76.5862 160.883 76.7355 160.611 76.8315 160.312C76.9382 160.003 76.9968 159.688 77.0075 159.368V159.32H75.1035C74.6448 159.32 74.2715 159.379 73.9835 159.496C73.7062 159.603 73.5035 159.752 73.3755 159.944C73.2475 160.136 73.1835 160.36 73.1835 160.616C73.1835 160.883 73.2422 161.112 73.3595 161.304C73.4875 161.485 73.6688 161.629 73.9035 161.736C74.1382 161.843 74.4208 161.896 74.7515 161.896ZM80.6818 163V151.48H82.2818V163H80.6818ZM86.1106 163L83.7426 154.936H85.3266L87.0866 161.656L86.7826 161.64L88.7346 154.936H90.5266L92.4786 161.64L92.1746 161.656L93.9186 154.936H95.5346L93.1666 163H91.5186L89.4706 156.008H89.7906L87.7426 163H86.1106ZM99.3225 163.192C98.6612 163.192 98.1118 163.08 97.6745 162.856C97.2372 162.632 96.9118 162.333 96.6985 161.96C96.4852 161.576 96.3785 161.165 96.3785 160.728C96.3785 160.195 96.5172 159.741 96.7945 159.368C97.0718 158.984 97.4665 158.691 97.9785 158.488C98.4905 158.285 99.1038 158.184 99.8185 158.184H101.915C101.915 157.715 101.845 157.325 101.707 157.016C101.568 156.707 101.36 156.477 101.083 156.328C100.816 156.168 100.475 156.088 100.059 156.088C99.5785 156.088 99.1678 156.205 98.8265 156.44C98.4852 156.664 98.2718 157 98.1865 157.448H96.5865C96.6505 156.883 96.8425 156.403 97.1625 156.008C97.4932 155.603 97.9145 155.293 98.4265 155.08C98.9385 154.856 99.4825 154.744 100.059 154.744C100.816 154.744 101.451 154.877 101.963 155.144C102.475 155.411 102.859 155.789 103.115 156.28C103.381 156.76 103.515 157.336 103.515 158.008V163H102.123L101.995 161.64C101.877 161.853 101.739 162.056 101.579 162.248C101.419 162.44 101.227 162.605 101.003 162.744C100.789 162.883 100.539 162.989 100.251 163.064C99.9732 163.149 99.6638 163.192 99.3225 163.192ZM99.6265 161.896C99.9678 161.896 100.277 161.827 100.555 161.688C100.832 161.549 101.067 161.363 101.259 161.128C101.461 160.883 101.611 160.611 101.707 160.312C101.813 160.003 101.872 159.688 101.883 159.368V159.32H99.9785C99.5198 159.32 99.1465 159.379 98.8585 159.496C98.5812 159.603 98.3785 159.752 98.2505 159.944C98.1225 160.136 98.0585 160.36 98.0585 160.616C98.0585 160.883 98.1172 161.112 98.2345 161.304C98.3625 161.485 98.5438 161.629 98.7785 161.736C99.0132 161.843 99.2958 161.896 99.6265 161.896ZM105.557 163V154.936H106.997L107.141 156.456C107.322 156.093 107.557 155.789 107.845 155.544C108.133 155.288 108.469 155.091 108.853 154.952C109.247 154.813 109.695 154.744 110.197 154.744V156.44H109.621C109.29 156.44 108.975 156.483 108.677 156.568C108.378 156.643 108.111 156.776 107.877 156.968C107.653 157.16 107.477 157.421 107.349 157.752C107.221 158.083 107.157 158.493 107.157 158.984V163H105.557ZM115.08 163.192C114.312 163.192 113.629 163.016 113.032 162.664C112.434 162.312 111.965 161.821 111.624 161.192C111.293 160.563 111.128 159.832 111.128 159C111.128 158.147 111.293 157.405 111.624 156.776C111.965 156.136 112.434 155.64 113.032 155.288C113.629 154.925 114.322 154.744 115.112 154.744C115.901 154.744 116.578 154.92 117.144 155.272C117.709 155.624 118.146 156.093 118.456 156.68C118.765 157.256 118.92 157.896 118.92 158.6C118.92 158.707 118.914 158.824 118.904 158.952C118.904 159.069 118.898 159.203 118.888 159.352H112.296V158.216H117.32C117.288 157.544 117.064 157.021 116.648 156.648C116.232 156.264 115.714 156.072 115.096 156.072C114.658 156.072 114.258 156.173 113.896 156.376C113.533 156.568 113.24 156.856 113.016 157.24C112.802 157.613 112.696 158.088 112.696 158.664V159.112C112.696 159.709 112.802 160.216 113.016 160.632C113.24 161.037 113.533 161.347 113.896 161.56C114.258 161.763 114.653 161.864 115.08 161.864C115.592 161.864 116.013 161.752 116.344 161.528C116.674 161.304 116.92 161 117.08 160.616H118.68C118.541 161.107 118.306 161.549 117.976 161.944C117.645 162.328 117.234 162.632 116.744 162.856C116.264 163.08 115.709 163.192 115.08 163.192ZM128.375 163.192C127.607 163.192 126.93 163.011 126.343 162.648C125.756 162.275 125.298 161.773 124.967 161.144C124.647 160.504 124.487 159.779 124.487 158.968C124.487 158.147 124.647 157.421 124.967 156.792C125.298 156.163 125.756 155.667 126.343 155.304C126.94 154.931 127.623 154.744 128.391 154.744C129.02 154.744 129.575 154.872 130.055 155.128C130.535 155.373 130.908 155.725 131.175 156.184V151.48H132.775V163H131.335L131.175 161.752C131.015 161.997 130.807 162.232 130.551 162.456C130.295 162.669 129.986 162.845 129.623 162.984C129.26 163.123 128.844 163.192 128.375 163.192ZM128.631 161.8C129.132 161.8 129.575 161.683 129.959 161.448C130.343 161.213 130.636 160.883 130.839 160.456C131.052 160.029 131.159 159.533 131.159 158.968C131.159 158.403 131.052 157.912 130.839 157.496C130.636 157.069 130.343 156.739 129.959 156.504C129.575 156.259 129.132 156.136 128.631 156.136C128.151 156.136 127.719 156.259 127.335 156.504C126.951 156.739 126.652 157.069 126.439 157.496C126.226 157.912 126.119 158.403 126.119 158.968C126.119 159.533 126.226 160.029 126.439 160.456C126.652 160.883 126.951 161.213 127.335 161.448C127.719 161.683 128.151 161.8 128.631 161.8ZM138.611 163.192C137.843 163.192 137.16 163.016 136.563 162.664C135.966 162.312 135.496 161.821 135.155 161.192C134.824 160.563 134.659 159.832 134.659 159C134.659 158.147 134.824 157.405 135.155 156.776C135.496 156.136 135.966 155.64 136.563 155.288C137.16 154.925 137.854 154.744 138.643 154.744C139.432 154.744 140.11 154.92 140.675 155.272C141.24 155.624 141.678 156.093 141.987 156.68C142.296 157.256 142.451 157.896 142.451 158.6C142.451 158.707 142.446 158.824 142.435 158.952C142.435 159.069 142.43 159.203 142.419 159.352H135.827V158.216H140.851C140.819 157.544 140.595 157.021 140.179 156.648C139.763 156.264 139.246 156.072 138.627 156.072C138.19 156.072 137.79 156.173 137.427 156.376C137.064 156.568 136.771 156.856 136.547 157.24C136.334 157.613 136.227 158.088 136.227 158.664V159.112C136.227 159.709 136.334 160.216 136.547 160.632C136.771 161.037 137.064 161.347 137.427 161.56C137.79 161.763 138.184 161.864 138.611 161.864C139.123 161.864 139.544 161.752 139.875 161.528C140.206 161.304 140.451 161 140.611 160.616H142.211C142.072 161.107 141.838 161.549 141.507 161.944C141.176 162.328 140.766 162.632 140.275 162.856C139.795 163.08 139.24 163.192 138.611 163.192ZM147.338 163C146.826 163 146.383 162.92 146.01 162.76C145.637 162.6 145.349 162.333 145.146 161.96C144.943 161.587 144.842 161.08 144.842 160.44V156.296H143.45V154.936H144.842L145.034 152.92H146.442V154.936H148.73V156.296H146.442V160.456C146.442 160.915 146.538 161.229 146.73 161.4C146.922 161.56 147.253 161.64 147.722 161.64H148.65V163H147.338ZM153.924 163.192C153.156 163.192 152.473 163.016 151.876 162.664C151.278 162.312 150.809 161.821 150.468 161.192C150.137 160.563 149.972 159.832 149.972 159C149.972 158.147 150.137 157.405 150.468 156.776C150.809 156.136 151.278 155.64 151.876 155.288C152.473 154.925 153.166 154.744 153.956 154.744C154.745 154.744 155.422 154.92 155.988 155.272C156.553 155.624 156.99 156.093 157.3 156.68C157.609 157.256 157.764 157.896 157.764 158.6C157.764 158.707 157.758 158.824 157.748 158.952C157.748 159.069 157.742 159.203 157.732 159.352H151.14V158.216H156.164C156.132 157.544 155.908 157.021 155.492 156.648C155.076 156.264 154.558 156.072 153.94 156.072C153.502 156.072 153.102 156.173 152.74 156.376C152.377 156.568 152.084 156.856 151.86 157.24C151.646 157.613 151.539 158.088 151.539 158.664V159.112C151.539 159.709 151.646 160.216 151.86 160.632C152.084 161.037 152.377 161.347 152.74 161.56C153.102 161.763 153.497 161.864 153.924 161.864C154.436 161.864 154.857 161.752 155.188 161.528C155.518 161.304 155.764 161 155.924 160.616H157.524C157.385 161.107 157.15 161.549 156.82 161.944C156.489 162.328 156.078 162.632 155.588 162.856C155.108 163.08 154.553 163.192 153.924 163.192ZM163.269 163.192C162.49 163.192 161.797 163.016 161.189 162.664C160.581 162.301 160.101 161.805 159.749 161.176C159.408 160.547 159.237 159.816 159.237 158.984C159.237 158.141 159.408 157.405 159.749 156.776C160.101 156.136 160.581 155.64 161.189 155.288C161.797 154.925 162.49 154.744 163.269 154.744C164.25 154.744 165.072 155 165.733 155.512C166.394 156.024 166.816 156.717 166.997 157.592H165.333C165.226 157.123 164.981 156.76 164.597 156.504C164.224 156.248 163.776 156.12 163.253 156.12C162.826 156.12 162.432 156.232 162.069 156.456C161.706 156.669 161.413 156.989 161.189 157.416C160.976 157.832 160.869 158.349 160.869 158.968C160.869 159.427 160.933 159.837 161.061 160.2C161.189 160.552 161.36 160.851 161.573 161.096C161.797 161.341 162.053 161.528 162.341 161.656C162.629 161.773 162.933 161.832 163.253 161.832C163.605 161.832 163.92 161.779 164.197 161.672C164.485 161.555 164.725 161.384 164.917 161.16C165.12 160.936 165.258 160.669 165.333 160.36H166.997C166.816 161.213 166.394 161.901 165.733 162.424C165.072 162.936 164.25 163.192 163.269 163.192ZM172.025 163C171.513 163 171.071 162.92 170.697 162.76C170.324 162.6 170.036 162.333 169.833 161.96C169.631 161.587 169.529 161.08 169.529 160.44V156.296H168.137V154.936H169.529L169.721 152.92H171.129V154.936H173.417V156.296H171.129V160.456C171.129 160.915 171.225 161.229 171.417 161.4C171.609 161.56 171.94 161.64 172.409 161.64H173.337V163H172.025ZM175.294 163V154.936H176.894V163H175.294ZM176.11 153.416C175.8 153.416 175.544 153.32 175.342 153.128C175.15 152.936 175.054 152.691 175.054 152.392C175.054 152.104 175.15 151.869 175.342 151.688C175.544 151.496 175.8 151.4 176.11 151.4C176.408 151.4 176.659 151.496 176.862 151.688C177.064 151.869 177.166 152.104 177.166 152.392C177.166 152.691 177.064 152.936 176.862 153.128C176.659 153.32 176.408 153.416 176.11 153.416ZM182.862 163.192C182.104 163.192 181.422 163.016 180.814 162.664C180.216 162.312 179.742 161.821 179.39 161.192C179.048 160.552 178.878 159.816 178.878 158.984C178.878 158.131 179.054 157.389 179.406 156.76C179.758 156.12 180.238 155.624 180.846 155.272C181.454 154.92 182.136 154.744 182.894 154.744C183.662 154.744 184.344 154.92 184.942 155.272C185.539 155.624 186.008 156.115 186.35 156.744C186.702 157.373 186.878 158.115 186.878 158.968C186.878 159.821 186.702 160.563 186.35 161.192C186.008 161.821 185.534 162.312 184.926 162.664C184.318 163.016 183.63 163.192 182.862 163.192ZM182.862 161.816C183.299 161.816 183.694 161.709 184.046 161.496C184.408 161.283 184.696 160.968 184.91 160.552C185.134 160.125 185.246 159.597 185.246 158.968C185.246 158.339 185.139 157.816 184.926 157.4C184.712 156.973 184.424 156.653 184.062 156.44C183.71 156.227 183.32 156.12 182.894 156.12C182.467 156.12 182.072 156.227 181.71 156.44C181.347 156.653 181.054 156.973 180.83 157.4C180.616 157.816 180.51 158.339 180.51 158.968C180.51 159.597 180.616 160.125 180.83 160.552C181.054 160.968 181.342 161.283 181.694 161.496C182.056 161.709 182.446 161.816 182.862 161.816ZM188.76 163V154.936H190.2L190.296 156.312C190.552 155.832 190.915 155.453 191.384 155.176C191.853 154.888 192.392 154.744 193 154.744C193.64 154.744 194.189 154.872 194.648 155.128C195.107 155.384 195.464 155.773 195.72 156.296C195.976 156.808 196.104 157.453 196.104 158.232V163H194.504V158.392C194.504 157.645 194.339 157.08 194.008 156.696C193.677 156.312 193.197 156.12 192.568 156.12C192.152 156.12 191.779 156.221 191.448 156.424C191.117 156.616 190.851 156.904 190.648 157.288C190.456 157.672 190.36 158.141 190.36 158.696V163H188.76Z" fill="white"/>
<rect x="47" y="200" width="161" height="41" rx="8" fill="url(#paint2_linear_914_95)"/>
<path d="M86.708 226.192C85.6307 226.192 84.6813 225.952 83.86 225.472C83.0493 224.981 82.4093 224.304 81.94 223.44C81.4813 222.565 81.252 221.552 81.252 220.4C81.252 219.259 81.4813 218.256 81.94 217.392C82.4093 216.517 83.0493 215.835 83.86 215.344C84.6813 214.853 85.6307 214.608 86.708 214.608C87.8067 214.608 88.7667 214.853 89.588 215.344C90.4093 215.835 91.044 216.517 91.492 217.392C91.9507 218.256 92.18 219.259 92.18 220.4C92.18 221.552 91.9507 222.565 91.492 223.44C91.044 224.304 90.4093 224.981 89.588 225.472C88.7667 225.952 87.8067 226.192 86.708 226.192ZM86.724 224.768C87.492 224.768 88.164 224.592 88.74 224.24C89.316 223.888 89.7587 223.387 90.068 222.736C90.388 222.085 90.548 221.307 90.548 220.4C90.548 219.493 90.388 218.715 90.068 218.064C89.7587 217.413 89.316 216.917 88.74 216.576C88.164 216.224 87.492 216.048 86.724 216.048C85.956 216.048 85.284 216.224 84.708 216.576C84.132 216.917 83.684 217.413 83.364 218.064C83.044 218.715 82.884 219.493 82.884 220.4C82.884 221.307 83.044 222.085 83.364 222.736C83.684 223.387 84.132 223.888 84.708 224.24C85.284 224.592 85.956 224.768 86.724 224.768ZM98.4255 226.192C97.9882 226.192 97.5882 226.128 97.2255 226C96.8735 225.883 96.5642 225.717 96.2975 225.504C96.0308 225.291 95.8068 225.045 95.6255 224.768L95.4655 226H94.0255V214.48H95.6255V219.2C95.8815 218.795 96.2388 218.453 96.6975 218.176C97.1668 217.888 97.7428 217.744 98.4255 217.744C99.1935 217.744 99.8708 217.931 100.458 218.304C101.044 218.667 101.498 219.168 101.818 219.808C102.148 220.437 102.314 221.163 102.314 221.984C102.314 222.784 102.148 223.504 101.818 224.144C101.498 224.784 101.044 225.285 100.458 225.648C99.8708 226.011 99.1935 226.192 98.4255 226.192ZM98.1695 224.8C98.6602 224.8 99.0922 224.683 99.4655 224.448C99.8495 224.213 100.148 223.883 100.362 223.456C100.586 223.029 100.698 222.533 100.698 221.968C100.698 221.403 100.586 220.912 100.362 220.496C100.148 220.069 99.8495 219.739 99.4655 219.504C99.0922 219.259 98.6602 219.136 98.1695 219.136C97.6682 219.136 97.2255 219.259 96.8415 219.504C96.4682 219.739 96.1748 220.069 95.9615 220.496C95.7482 220.912 95.6415 221.403 95.6415 221.968C95.6415 222.533 95.7482 223.029 95.9615 223.456C96.1748 223.883 96.4682 224.213 96.8415 224.448C97.2255 224.683 97.6682 224.8 98.1695 224.8ZM104.614 226V216.848C104.614 216.293 104.704 215.84 104.886 215.488C105.078 215.136 105.355 214.88 105.718 214.72C106.08 214.56 106.518 214.48 107.03 214.48H107.974V215.84H107.286C106.902 215.84 106.624 215.92 106.454 216.08C106.294 216.229 106.214 216.496 106.214 216.88V226H104.614ZM103.43 219.296V217.936H108.15V219.296H103.43ZM112.736 226.192C112.106 226.192 111.557 226.064 111.088 225.808C110.629 225.552 110.272 225.168 110.016 224.656C109.77 224.144 109.648 223.499 109.648 222.72V217.936H111.248V222.544C111.248 223.301 111.413 223.872 111.744 224.256C112.074 224.64 112.549 224.832 113.168 224.832C113.584 224.832 113.957 224.731 114.288 224.528C114.629 224.325 114.896 224.032 115.088 223.648C115.28 223.264 115.376 222.795 115.376 222.24V217.936H116.976V226H115.552L115.44 224.624C115.194 225.115 114.837 225.499 114.368 225.776C113.898 226.053 113.354 226.192 112.736 226.192ZM122.286 226.192C121.603 226.192 121.006 226.08 120.494 225.856C119.982 225.632 119.577 225.317 119.278 224.912C118.979 224.507 118.798 224.032 118.734 223.488H120.366C120.419 223.744 120.521 223.979 120.67 224.192C120.83 224.405 121.043 224.576 121.31 224.704C121.587 224.832 121.913 224.896 122.286 224.896C122.638 224.896 122.926 224.848 123.15 224.752C123.385 224.645 123.555 224.507 123.662 224.336C123.769 224.155 123.822 223.963 123.822 223.76C123.822 223.461 123.747 223.237 123.598 223.088C123.459 222.928 123.246 222.805 122.958 222.72C122.681 222.624 122.345 222.539 121.95 222.464C121.577 222.4 121.214 222.315 120.862 222.208C120.521 222.091 120.211 221.947 119.934 221.776C119.667 221.605 119.454 221.392 119.294 221.136C119.134 220.869 119.054 220.544 119.054 220.16C119.054 219.701 119.177 219.291 119.422 218.928C119.667 218.555 120.014 218.267 120.462 218.064C120.921 217.851 121.459 217.744 122.078 217.744C122.974 217.744 123.694 217.957 124.238 218.384C124.782 218.811 125.102 219.413 125.198 220.192H123.646C123.603 219.829 123.443 219.552 123.166 219.36C122.889 219.157 122.521 219.056 122.062 219.056C121.603 219.056 121.251 219.147 121.006 219.328C120.761 219.509 120.638 219.749 120.638 220.048C120.638 220.24 120.707 220.411 120.846 220.56C120.985 220.709 121.187 220.837 121.454 220.944C121.731 221.04 122.067 221.131 122.462 221.216C123.027 221.323 123.534 221.456 123.982 221.616C124.43 221.776 124.787 222.011 125.054 222.32C125.321 222.629 125.454 223.072 125.454 223.648C125.465 224.149 125.337 224.592 125.07 224.976C124.814 225.36 124.446 225.659 123.966 225.872C123.497 226.085 122.937 226.192 122.286 226.192ZM131.066 226.192C130.287 226.192 129.594 226.016 128.986 225.664C128.378 225.301 127.898 224.805 127.546 224.176C127.205 223.547 127.034 222.816 127.034 221.984C127.034 221.141 127.205 220.405 127.546 219.776C127.898 219.136 128.378 218.64 128.986 218.288C129.594 217.925 130.287 217.744 131.066 217.744C132.047 217.744 132.869 218 133.53 218.512C134.191 219.024 134.613 219.717 134.794 220.592H133.13C133.023 220.123 132.778 219.76 132.394 219.504C132.021 219.248 131.573 219.12 131.05 219.12C130.623 219.12 130.229 219.232 129.866 219.456C129.503 219.669 129.21 219.989 128.986 220.416C128.773 220.832 128.666 221.349 128.666 221.968C128.666 222.427 128.73 222.837 128.858 223.2C128.986 223.552 129.157 223.851 129.37 224.096C129.594 224.341 129.85 224.528 130.138 224.656C130.426 224.773 130.73 224.832 131.05 224.832C131.402 224.832 131.717 224.779 131.994 224.672C132.282 224.555 132.522 224.384 132.714 224.16C132.917 223.936 133.055 223.669 133.13 223.36H134.794C134.613 224.213 134.191 224.901 133.53 225.424C132.869 225.936 132.047 226.192 131.066 226.192ZM139.338 226.192C138.677 226.192 138.127 226.08 137.69 225.856C137.253 225.632 136.927 225.333 136.714 224.96C136.501 224.576 136.394 224.165 136.394 223.728C136.394 223.195 136.533 222.741 136.81 222.368C137.087 221.984 137.482 221.691 137.994 221.488C138.506 221.285 139.119 221.184 139.834 221.184H141.93C141.93 220.715 141.861 220.325 141.722 220.016C141.583 219.707 141.375 219.477 141.098 219.328C140.831 219.168 140.49 219.088 140.074 219.088C139.594 219.088 139.183 219.205 138.842 219.44C138.501 219.664 138.287 220 138.202 220.448H136.602C136.666 219.883 136.858 219.403 137.178 219.008C137.509 218.603 137.93 218.293 138.442 218.08C138.954 217.856 139.498 217.744 140.074 217.744C140.831 217.744 141.466 217.877 141.978 218.144C142.49 218.411 142.874 218.789 143.13 219.28C143.397 219.76 143.53 220.336 143.53 221.008V226H142.138L142.01 224.64C141.893 224.853 141.754 225.056 141.594 225.248C141.434 225.44 141.242 225.605 141.018 225.744C140.805 225.883 140.554 225.989 140.266 226.064C139.989 226.149 139.679 226.192 139.338 226.192ZM139.642 224.896C139.983 224.896 140.293 224.827 140.57 224.688C140.847 224.549 141.082 224.363 141.274 224.128C141.477 223.883 141.626 223.611 141.722 223.312C141.829 223.003 141.887 222.688 141.898 222.368V222.32H139.994C139.535 222.32 139.162 222.379 138.874 222.496C138.597 222.603 138.394 222.752 138.266 222.944C138.138 223.136 138.074 223.36 138.074 223.616C138.074 223.883 138.133 224.112 138.25 224.304C138.378 224.485 138.559 224.629 138.794 224.736C139.029 224.843 139.311 224.896 139.642 224.896ZM148.729 226C148.217 226 147.774 225.92 147.401 225.76C147.027 225.6 146.739 225.333 146.537 224.96C146.334 224.587 146.233 224.08 146.233 223.44V219.296H144.84V217.936H146.233L146.424 215.92H147.833V217.936H150.121V219.296H147.833V223.456C147.833 223.915 147.929 224.229 148.121 224.4C148.313 224.56 148.643 224.64 149.113 224.64H150.041V226H148.729ZM151.997 226V217.936H153.597V226H151.997ZM152.813 216.416C152.504 216.416 152.248 216.32 152.045 216.128C151.853 215.936 151.757 215.691 151.757 215.392C151.757 215.104 151.853 214.869 152.045 214.688C152.248 214.496 152.504 214.4 152.813 214.4C153.112 214.4 153.362 214.496 153.565 214.688C153.768 214.869 153.869 215.104 153.869 215.392C153.869 215.691 153.768 215.936 153.565 216.128C153.362 216.32 153.112 216.416 152.813 216.416ZM159.565 226.192C158.808 226.192 158.125 226.016 157.517 225.664C156.92 225.312 156.445 224.821 156.093 224.192C155.752 223.552 155.581 222.816 155.581 221.984C155.581 221.131 155.757 220.389 156.109 219.76C156.461 219.12 156.941 218.624 157.549 218.272C158.157 217.92 158.84 217.744 159.597 217.744C160.365 217.744 161.048 217.92 161.645 218.272C162.242 218.624 162.712 219.115 163.053 219.744C163.405 220.373 163.581 221.115 163.581 221.968C163.581 222.821 163.405 223.563 163.053 224.192C162.712 224.821 162.237 225.312 161.629 225.664C161.021 226.016 160.333 226.192 159.565 226.192ZM159.565 224.816C160.002 224.816 160.397 224.709 160.749 224.496C161.112 224.283 161.4 223.968 161.613 223.552C161.837 223.125 161.949 222.597 161.949 221.968C161.949 221.339 161.842 220.816 161.629 220.4C161.416 219.973 161.128 219.653 160.765 219.44C160.413 219.227 160.024 219.12 159.597 219.12C159.17 219.12 158.776 219.227 158.413 219.44C158.05 219.653 157.757 219.973 157.533 220.4C157.32 220.816 157.213 221.339 157.213 221.968C157.213 222.597 157.32 223.125 157.533 223.552C157.757 223.968 158.045 224.283 158.397 224.496C158.76 224.709 159.149 224.816 159.565 224.816ZM165.463 226V217.936H166.903L166.999 219.312C167.255 218.832 167.618 218.453 168.087 218.176C168.556 217.888 169.095 217.744 169.703 217.744C170.343 217.744 170.892 217.872 171.351 218.128C171.81 218.384 172.167 218.773 172.423 219.296C172.679 219.808 172.807 220.453 172.807 221.232V226H171.207V221.392C171.207 220.645 171.042 220.08 170.711 219.696C170.38 219.312 169.9 219.12 169.271 219.12C168.855 219.12 168.482 219.221 168.151 219.424C167.82 219.616 167.554 219.904 167.351 220.288C167.159 220.672 167.063 221.141 167.063 221.696V226H165.463Z" fill="white"/>
<rect x="47" y="263" width="161" height="41" rx="8" fill="url(#paint3_linear_914_95)"/>
<path d="M108.668 289V277.8H112.46C113.345 277.8 114.071 277.949 114.636 278.248C115.201 278.547 115.617 278.947 115.884 279.448C116.161 279.939 116.3 280.499 116.3 281.128C116.3 281.725 116.161 282.28 115.884 282.792C115.617 283.293 115.196 283.699 114.62 284.008C114.044 284.307 113.308 284.456 112.412 284.456H110.268V289H108.668ZM114.556 289L112.14 284.024H113.9L116.412 289H114.556ZM110.268 283.24H112.348C113.137 283.24 113.719 283.048 114.092 282.664C114.465 282.269 114.652 281.768 114.652 281.16C114.652 280.541 114.471 280.051 114.108 279.688C113.745 279.325 113.159 279.144 112.348 279.144H110.268V283.24ZM117.651 289L121.763 277.8H123.507L127.619 289H125.907L122.627 279.72L119.331 289H117.651ZM119.507 286.232L119.955 284.952H125.219L125.667 286.232H119.507ZM132.879 289.192C132.058 289.192 131.338 289.048 130.719 288.76C130.1 288.461 129.62 288.045 129.279 287.512C128.938 286.979 128.767 286.355 128.767 285.64H130.447C130.458 286.045 130.554 286.419 130.735 286.76C130.927 287.091 131.199 287.357 131.551 287.56C131.914 287.752 132.356 287.848 132.879 287.848C133.327 287.848 133.711 287.773 134.031 287.624C134.362 287.475 134.612 287.272 134.783 287.016C134.954 286.749 135.039 286.445 135.039 286.104C135.039 285.709 134.948 285.384 134.767 285.128C134.586 284.872 134.34 284.664 134.031 284.504C133.732 284.333 133.38 284.184 132.975 284.056C132.58 283.928 132.164 283.789 131.727 283.64C130.842 283.352 130.18 282.979 129.743 282.52C129.316 282.061 129.103 281.464 129.103 280.728C129.103 280.099 129.252 279.555 129.551 279.096C129.85 278.627 130.266 278.264 130.799 278.008C131.343 277.741 131.983 277.608 132.719 277.608C133.444 277.608 134.079 277.741 134.623 278.008C135.167 278.275 135.594 278.643 135.903 279.112C136.212 279.581 136.367 280.131 136.367 280.76H134.671C134.671 280.472 134.596 280.189 134.447 279.912C134.298 279.635 134.074 279.411 133.775 279.24C133.476 279.059 133.108 278.968 132.671 278.968C132.308 278.957 131.983 279.016 131.695 279.144C131.407 279.272 131.183 279.459 131.023 279.704C130.863 279.949 130.783 280.243 130.783 280.584C130.783 280.925 130.852 281.203 130.991 281.416C131.14 281.619 131.354 281.795 131.631 281.944C131.908 282.093 132.228 282.232 132.591 282.36C132.964 282.477 133.375 282.611 133.823 282.76C134.378 282.941 134.868 283.165 135.295 283.432C135.732 283.688 136.074 284.024 136.319 284.44C136.575 284.845 136.703 285.368 136.703 286.008C136.703 286.563 136.559 287.08 136.271 287.56C135.983 288.04 135.556 288.435 134.991 288.744C134.426 289.043 133.722 289.192 132.879 289.192ZM138.606 289V277.8H142.43C143.326 277.8 144.062 277.949 144.638 278.248C145.214 278.547 145.64 278.947 145.918 279.448C146.195 279.949 146.334 280.52 146.334 281.16C146.334 281.768 146.195 282.328 145.918 282.84C145.651 283.341 145.23 283.747 144.654 284.056C144.078 284.355 143.336 284.504 142.43 284.504H140.206V289H138.606ZM140.206 283.176H142.366C143.208 283.176 143.806 282.995 144.158 282.632C144.52 282.259 144.702 281.768 144.702 281.16C144.702 280.509 144.52 280.008 144.158 279.656C143.806 279.304 143.208 279.128 142.366 279.128H140.206V283.176Z" fill="white"/>
<path d="M31.448 115L35.56 103.8H37.304L41.416 115H39.704L36.424 105.72L33.128 115H31.448ZM33.304 112.232L33.752 110.952H39.016L39.464 112.232H33.304ZM42.9318 118.52V106.936H44.3718L44.5318 108.184C44.7024 107.939 44.9158 107.709 45.1718 107.496C45.4278 107.272 45.7318 107.091 46.0838 106.952C46.4464 106.813 46.8678 106.744 47.3478 106.744C48.1158 106.744 48.7878 106.931 49.3638 107.304C49.9504 107.677 50.4038 108.184 50.7238 108.824C51.0544 109.453 51.2198 110.173 51.2198 110.984C51.2198 111.795 51.0544 112.52 50.7238 113.16C50.3931 113.789 49.9344 114.285 49.3478 114.648C48.7718 115.011 48.0998 115.192 47.3318 115.192C46.7024 115.192 46.1478 115.069 45.6678 114.824C45.1878 114.568 44.8091 114.216 44.5318 113.768V118.52H42.9318ZM47.0758 113.8C47.5664 113.8 47.9984 113.683 48.3718 113.448C48.7558 113.213 49.0544 112.883 49.2678 112.456C49.4918 112.029 49.6038 111.533 49.6038 110.968C49.6038 110.403 49.4918 109.912 49.2678 109.496C49.0544 109.069 48.7558 108.739 48.3718 108.504C47.9984 108.259 47.5664 108.136 47.0758 108.136C46.5744 108.136 46.1318 108.259 45.7478 108.504C45.3744 108.739 45.0811 109.069 44.8678 109.496C44.6544 109.912 44.5478 110.403 44.5478 110.968C44.5478 111.533 44.6544 112.029 44.8678 112.456C45.0811 112.883 45.3744 113.213 45.7478 113.448C46.1318 113.683 46.5744 113.8 47.0758 113.8ZM53.088 118.52V106.936H54.528L54.688 108.184C54.8587 107.939 55.072 107.709 55.328 107.496C55.584 107.272 55.888 107.091 56.24 106.952C56.6027 106.813 57.024 106.744 57.504 106.744C58.272 106.744 58.944 106.931 59.52 107.304C60.1067 107.677 60.56 108.184 60.88 108.824C61.2107 109.453 61.376 110.173 61.376 110.984C61.376 111.795 61.2107 112.52 60.88 113.16C60.5493 113.789 60.0907 114.285 59.504 114.648C58.928 115.011 58.256 115.192 57.488 115.192C56.8587 115.192 56.304 115.069 55.824 114.824C55.344 114.568 54.9653 114.216 54.688 113.768V118.52H53.088ZM57.232 113.8C57.7227 113.8 58.1547 113.683 58.528 113.448C58.912 113.213 59.2107 112.883 59.424 112.456C59.648 112.029 59.76 111.533 59.76 110.968C59.76 110.403 59.648 109.912 59.424 109.496C59.2107 109.069 58.912 108.739 58.528 108.504C58.1547 108.259 57.7227 108.136 57.232 108.136C56.7307 108.136 56.288 108.259 55.904 108.504C55.5307 108.739 55.2373 109.069 55.024 109.496C54.8107 109.912 54.704 110.403 54.704 110.968C54.704 111.533 54.8107 112.029 55.024 112.456C55.2373 112.883 55.5307 113.213 55.904 113.448C56.288 113.683 56.7307 113.8 57.232 113.8Z" fill="white"/>
</g>
<defs>
<filter id="filter0_d_914_95" x="0" y="0" width="256" height="497" filterUnits="userSpaceOnUse" color-interpolation-filters="sRGB">
<feFlood flood-opacity="0" result="BackgroundImageFix"/>
<feColorMatrix in="SourceAlpha" type="matrix" values="0 0 0 0 0 0 0 0 0 0 0 0 0 0 0 0 0 0 127 0" result="hardAlpha"/>
<feOffset dy="1"/>
<feGaussianBlur stdDeviation="2"/>
<feComposite in2="hardAlpha" operator="out"/>
<feColorMatrix type="matrix" values="0 0 0 0 0 0 0 0 0 0 0 0 0 0 0 0 0 0 0.25 0"/>
<feBlend mode="normal" in2="BackgroundImageFix" result="effect1_dropShadow_914_95"/>
<feBlend mode="normal" in="SourceGraphic" in2="effect1_dropShadow_914_95" result="shape"/>
</filter>
<linearGradient id="paint0_linear_914_95" x1="85.5" y1="147" x2="259" y2="407" gradientUnits="userSpaceOnUse">
<stop stop-color="#2C2C2C"/>
<stop offset="1" stop-color="#565656"/>
</linearGradient>
<linearGradient id="paint1_linear_914_95" x1="7.5" y1="172.5" x2="250.25" y2="215.794" gradientUnits="userSpaceOnUse">
<stop offset="0.0336539" stop-color="#0066FF"/>
<stop offset="1" stop-color="#4690FF"/>
</linearGradient>
<linearGradient id="paint2_linear_914_95" x1="7.5" y1="235.5" x2="250.25" y2="278.794" gradientUnits="userSpaceOnUse">
<stop offset="0.0336539" stop-color="#0066FF"/>
<stop offset="1" stop-color="#4690FF"/>
</linearGradient>
<linearGradient id="paint3_linear_914_95" x1="7.5" y1="298.5" x2="250.25" y2="341.794" gradientUnits="userSpaceOnUse">
<stop offset="0.0336539" stop-color="#0066FF"/>
<stop offset="1" stop-color="#4690FF"/>
</linearGradient>
</defs>
</svg>
